<?xml version="1.0" encoding="utf-8"?>
<svg xmlns="http://www.w3.org/2000/svg" viewBox="-232.255 -672.936 1247.001 1816.279" xmlns:bx="https://boxy-svg.com" width="1247.001px" height="1816.279px"><defs><bx:export><bx:file format="svg"/></bx:export></defs><g id="Gröna-mötesplatser" transform="matrix(1, 0, 0, 1, -560.298279, -774.908203)" style=""><title>04_GREEN MEETING SPACES</title><path d="M933.737,476.627c6.683,15.663 -37.967,49.721 -99.729,76.071c-61.758,26.35 -117.246,35.008 -123.929,19.346c-6.679,-15.667 37.971,-49.725 99.729,-76.071c61.762,-26.35 117.246,-35.008 123.929,-19.346" style="fill:#8cba63;fill-rule:nonzero;" opacity="0.8"><title>Blob</title></path><path d="M831.795,330.085c18.142,-7.738 49.405,24.795 69.83,72.67c20.42,47.875 22.275,92.963 4.133,100.7c-18.142,7.738 -49.404,-24.795 -69.829,-72.67c-20.421,-47.875 -22.275,-92.963 -4.134,-100.7" style="fill:#8cba63;fill-rule:nonzero;" opacity="0.8"><title>Blob</title></path><path d="M617.059,858.13c15.542,-12.142 52.796,9.575 83.209,48.508c30.412,38.933 42.47,80.333 26.925,92.475c-15.542,12.142 -52.796,-9.575 -83.209,-48.508c-30.412,-38.93 -42.466,-80.334 -26.925,-92.475" style="fill:#8cba63;fill-rule:nonzero;" opacity="0.8"><title>Blob</title></path><path d="M1127.64,873.866c6.559,21.475 -82.196,67.604 -198.237,103.034c-116.038,35.429 -215.421,46.741 -221.975,25.27c-6.559,-21.475 82.196,-67.604 198.233,-103.033c116.042,-35.429 215.421,-46.746 221.979,-25.271" style="fill:#8cba63;fill-rule:nonzero;" opacity="0.8"><title>Blob</title></path><path d="M1096.91,1450.54c5.579,16.092 -27.558,42.188 -74.008,58.292c-46.454,16.1 -88.629,16.108 -94.209,0.021c-5.579,-16.092 27.559,-42.192 74.009,-58.292c46.454,-16.104 88.629,-16.113 94.208,-0.021" style="fill:#8cba63;fill-rule:nonzero;" opacity="0.8"><title>Blob</title></path><path d="M750.974,1109.67c26.929,-10.721 83.346,67.45 126.008,174.608c42.667,107.155 55.421,202.713 28.488,213.434c-26.93,10.721 -83.346,-67.45 -126.009,-174.609c-42.662,-107.154 -55.416,-202.712 -28.487,-213.433" style="fill:#8cba63;fill-rule:nonzero;" opacity="0.8"><title>Blob</title></path><path d="M1487.7,572.818c0,54.137 -43.887,98.025 -98.025,98.025c-54.141,-0 -98.029,-43.888 -98.029,-98.025c0,-54.138 43.888,-98.025 98.029,-98.025c54.138,-0 98.025,43.887 98.025,98.025" style="fill:#8cba63;fill-rule:nonzero;" opacity="0.8"><title>Blob</title></path><path d="M1359.86,746.649c0,29.829 -24.183,54.013 -54.012,54.013c-29.829,-0 -54.013,-24.184 -54.013,-54.013c0,-29.829 24.184,-54.012 54.013,-54.012c29.829,-0 54.012,24.183 54.012,54.012" style="fill:#8cba63;fill-rule:nonzero;" opacity="0.8"><title>Blob</title></path><path d="M1272.71,839.241c0,37.1 -30.075,67.179 -67.179,67.179c-37.1,0 -67.179,-30.079 -67.179,-67.179c0,-37.1 30.079,-67.179 67.179,-67.179c37.104,0 67.179,30.079 67.179,67.179" style="fill:#8cba63;fill-rule:nonzero;" opacity="0.8"><title>Blob</title></path><path d="M1177.08,1803.82c-0,54.825 -44.442,99.266 -99.267,99.266c-54.825,0 -99.267,-44.441 -99.267,-99.266c0,-54.825 44.442,-99.267 99.267,-99.267c54.825,-0 99.267,44.442 99.267,99.267" style="fill:#8cba63;fill-rule:nonzero;" opacity="0.8"><title>Blob</title></path><path d="M1185.21,1041.11c8.179,19.175 -4.6,42.996 -28.542,53.208c-23.941,10.217 -49.979,2.955 -58.158,-16.22c-8.179,-19.171 4.596,-42.996 28.537,-53.209c23.942,-10.216 49.984,-2.954 58.163,16.221" style="fill:#8cba63;fill-rule:nonzero;" opacity="0.8"><title>Blob</title></path></g><g id="HÄLSOFRÄMJANDE-CAMPUS" transform="matrix(1, 0, 0, 1, -560.298279, -774.908203)" style=""><title>03_HÄLSOFRÄMJANDE-CAMPUS:</title><g style="" id="object-0"><title>04_Points</title><path d="M802.272,660.161c0,-8.679 -7.037,-15.716 -15.717,-15.716c-8.679,-0 -15.716,7.037 -15.716,15.716c-0,8.679 7.037,15.717 15.716,15.717c8.68,-0 15.717,-7.038 15.717,-15.717" style="fill:#b7b363;fill-rule:nonzero;"><title>Marker</title></path><path d="M875.659,668.871c0,-8.679 -7.037,-15.717 -15.716,-15.717c-8.68,0 -15.717,7.038 -15.717,15.717c-0,8.679 7.037,15.716 15.717,15.716c8.679,0 15.716,-7.037 15.716,-15.716" style="fill:#b7b363;fill-rule:nonzero;"><title>Marker</title></path><path d="M948.962,832.356c0,-8.679 -7.037,-15.717 -15.717,-15.717c-8.679,0 -15.716,7.038 -15.716,15.717c-0,8.679 7.037,15.716 15.716,15.716c8.68,0 15.717,-7.037 15.717,-15.716" style="fill:#b7b363;fill-rule:nonzero;"><title>Marker</title></path><path d="M943.796,1013.04c-0,-8.679 -7.038,-15.716 -15.717,-15.716c-8.679,-0 -15.716,7.037 -15.716,15.716c-0,8.679 7.037,15.717 15.716,15.717c8.679,0 15.717,-7.038 15.717,-15.717" style="fill:#b7b363;fill-rule:nonzero;"><title>Marker</title></path><path d="M1001.75,1162.39c-0,-8.679 -7.038,-15.716 -15.717,-15.716c-8.679,-0.001 -15.717,7.037 -15.717,15.716c0,8.679 7.038,15.717 15.717,15.717c8.679,-0 15.717,-7.038 15.717,-15.717" style="fill:#b7b363;fill-rule:nonzero;"><title>Marker</title></path><path d="M1063.85,1091.04c0,-8.679 -7.037,-15.716 -15.716,-15.716c-8.68,-0.001 -15.717,7.037 -15.717,15.716c-0,8.679 7.037,15.717 15.717,15.717c8.679,-0 15.716,-7.038 15.716,-15.717" style="fill:#b7b363;fill-rule:nonzero;"><title>Marker</title></path><path d="M1063.57,1300.16c0,-8.679 -7.037,-15.716 -15.716,-15.716c-8.679,-0 -15.717,7.037 -15.717,15.716c0,8.679 7.038,15.717 15.717,15.717c8.679,-0 15.716,-7.038 15.716,-15.717" style="fill:#b7b363;fill-rule:nonzero;"><title>Marker</title></path><path d="M1106.6,1397.86c0,-8.679 -7.037,-15.716 -15.717,-15.716c-8.679,-0 -15.716,7.037 -15.716,15.716c-0,8.68 7.037,15.717 15.716,15.717c8.68,0 15.717,-7.037 15.717,-15.717" style="fill:#b7b363;fill-rule:nonzero;"><title>Marker</title></path><path d="M1209.14,1617.64c-0,-8.679 -7.038,-15.716 -15.717,-15.716c-8.679,-0 -15.717,7.037 -15.717,15.716c0,8.68 7.038,15.717 15.717,15.717c8.679,0 15.717,-7.037 15.717,-15.717" style="fill:#b7b363;fill-rule:nonzero;"><title>Marker</title></path><path d="M1007.72,1561.52c-0,-8.679 -7.038,-15.716 -15.717,-15.716c-8.679,-0 -15.716,7.037 -15.716,15.716c-0,8.68 7.037,15.717 15.716,15.717c8.679,0 15.717,-7.037 15.717,-15.717" style="fill:#b7b363;fill-rule:nonzero;"><title>Marker</title></path></g><g style=""><title>02_Secondary Path</title><path d="M1226.34,1698.81l-27.958,-37.746c-2.73,-3.684 -7.121,-9.763 -9.755,-13.513l-26.445,-37.604c-2.638,-3.746 -6.859,-9.946 -9.388,-13.767l-53.775,-81.416c-2.529,-3.825 -5.783,-10.509 -7.237,-14.859l-13.967,-41.779" style="fill: none; fill-rule: nonzero; stroke: rgb(86, 130, 0); stroke-width: 6.25px;"/><path d="M1227.44,1682.5l-2.204,14.825l-14.825,-2.212l5.354,7.229l14.821,2.208l2.208,-14.821l-5.354,-7.229Z" style="fill:#568200;fill-rule:nonzero;"><title>Arrow</title></path><path d="M803.685,352.107l58.933,144.109c1.738,4.241 -0.316,9.133 -4.558,10.866l-83.492,34.146c-4.241,1.734 -6.525,6.713 -5.079,11.059l31.563,94.787c1.45,4.35 5.787,9.938 9.641,12.413l37.834,24.321c3.854,2.479 5.933,8.099 4.621,12.491l-11.85,39.588c-1.317,4.391 -0.563,11.258 1.67,15.262l18.746,33.592c2.234,4.004 5.163,10.862 6.513,15.242l10.787,35.062c1.346,4.383 3.242,11.633 4.213,16.113l18.696,86.42c0.97,4.48 1.425,11.88 1.016,16.446l-2.829,31.409c-0.408,4.562 0.625,11.787 2.304,16.054l56.863,144.504c1.679,4.267 4.466,11.229 6.2,15.471l35.058,85.804c1.733,4.246 4.746,11.108 6.7,15.258l22.533,47.879c1.95,4.15 6.275,10.113 9.617,13.255l19.342,18.204c3.337,3.141 6.508,9.437 7.045,13.987l12.042,102.275" style="fill:none;fill-rule:nonzero;stroke:#568200;stroke-width:6.25px;"/><path d="M875.659,824.146l44.321,-10.725c4.454,-1.075 11.783,-1.266 16.292,-0.421l30.941,5.809c4.505,0.846 9.4,5.087 10.875,9.429l28.467,83.671c1.479,4.337 3.717,11.491 4.975,15.9l10.238,35.825c1.258,4.408 3.687,11.491 5.4,15.746l51.183,127.129c1.712,4.254 4.437,11.241 6.058,15.529l25.592,67.742c1.617,4.287 6.641,8.416 11.162,9.179l38.459,6.487c4.516,0.763 10.212,4.559 12.658,8.438l39.192,62.229" style="fill:none;fill-rule:nonzero;stroke:#568200;stroke-width:6.25px;"/><path d="M1281.39,1241.23l-86.916,43.363c-4.1,2.046 -10.971,5.029 -15.267,6.625l-124.925,46.462" style="fill:none;fill-rule:nonzero;stroke:#568200;stroke-width:6.25px;"/><path d="M1205.54,1069.8l-85.079,40.837c-4.133,1.984 -11.263,3.609 -15.846,3.609l-41.996,-0c-4.583,-0 -11.779,1.479 -15.991,3.287l-84.296,36.217" style="fill:none;fill-rule:nonzero;stroke:#568200;stroke-width:6.25px;"/><path d="M922.336,1479.69l-62.95,48.017c-3.646,2.779 -10.133,6.379 -14.421,8l-108.062,40.863" style="fill:none;fill-rule:nonzero;stroke:#568200;stroke-width:6.25px;"/><path d="M744.798,1562.26l-6.167,13.663l13.663,6.158l-8.417,3.183l-13.658,-6.162l6.162,-13.659l8.417,-3.183Z" style="fill:#568200;fill-rule:nonzero;"><title>Arrow</title></path><path d="M813.87,1099.43l-66.025,40.117c-3.916,2.379 -10.645,5.608 -14.954,7.175l-35.262,12.825c-4.309,1.567 -11.292,4.296 -15.521,6.062l-35.608,14.905c-4.23,1.77 -11.109,4.758 -15.288,6.637l-3.321,1.496c-4.179,1.879 -11.341,3.179 -15.912,2.883l-56.779,-3.637" style="fill:none;fill-rule:nonzero;stroke:#568200;stroke-width:6.25px;"><title>Path</title></path><path d="M568.302,1178.11l-11.259,9.896l9.905,11.254l-8.98,-0.579l-9.895,-11.25l11.25,-9.896l8.979,0.575Z" style="fill:#568200;fill-rule:nonzero;"><title>Arrow</title></path></g><g style=""><title>01_Primary Path</title><path d="M1122.59,887.265l50.558,-56.891c3.046,-3.425 8.858,-7.971 12.917,-10.1l67.646,-35.496c4.062,-2.129 10.754,-5.513 14.875,-7.517l53.529,-26.041c4.125,-2.005 8.646,-7.213 10.054,-11.575l31.921,-98.955c1.404,-4.362 4.183,-11.312 6.166,-15.441l35.467,-73.763" style="fill: none; fill-rule: nonzero; stroke: rgb(86, 130, 0); stroke-width: 20.83px;"/><path d="M1415.42,588.378l-11.563,-33.009l-33,11.584l9.096,-18.921l32.992,-11.567l11.571,32.992l-9.096,18.921Z" style="fill: rgb(86, 130, 0); fill-rule: nonzero;"><title>Arrow</title></path><path d="M762.188,951.776l23.487,56.621c1.759,4.233 4.5,11.212 6.1,15.508l28.605,76.971c1.595,4.296 3.483,11.516 4.191,16.041l13.05,83.534c0.709,4.529 0.7,11.937 -0.016,16.466l-8.08,50.967c-0.716,4.525 0.242,11.646 2.13,15.825l72.916,161.213c1.888,4.175 5.042,10.979 7.009,15.12l41.412,87.3c1.963,4.138 5.092,10.955 6.946,15.146l87.592,197.625" style="fill: none; fill-rule: nonzero; stroke: rgb(86, 130, 0); stroke-width: 20.83px;"/><path d="M1013.16,1743.58l32.625,12.6l12.579,-32.638l8.508,19.196l-12.587,32.617l-32.617,-12.583l-8.508,-19.192Z" style="fill: rgb(86, 130, 0); fill-rule: nonzero;"><title>Arrow</title></path><path d="M657.397,843.011l-265.83,-466.45" style="fill: none; fill-rule: nonzero; stroke: rgb(86, 130, 0); stroke-width: 20.83px;"/><path d="M427.43,389.559l-33.729,-9.25l-9.229,33.733l-10.396,-18.237l9.238,-33.725l33.721,9.241l10.395,18.238Z" style="fill: rgb(86, 130, 0); fill-rule: nonzero;"><title>Arrow</title></path><path d="M1122.59,887.265l-55.938,28.725c-4.075,2.092 -11.162,3.805 -15.746,3.805l-55.554,-0c-4.583,-0 -11.916,1.116 -16.291,2.479l-150.755,46.9c-4.375,1.362 -11.504,1.262 -15.841,-0.221l-95.338,-32.575c-4.337,-1.479 -9.75,-5.95 -12.025,-9.925l-47.708,-83.442" style="fill: none; fill-rule: nonzero; stroke: rgb(86, 130, 0); stroke-width: 20.83px;"/></g><g style=""><title>03_Tertiary Path</title><path d="M708.592,568.21c-0,-0 -0.688,15.358 -1.529,34.125c-0.838,18.771 -4.35,52.662 -7.805,75.321l-17.075,112.062c-3.45,22.654 -17.108,48.271 -30.35,56.929c-13.241,8.659 -36.158,23.242 -50.925,32.409c-14.77,9.166 -38.52,12.5 -52.779,7.408c-14.258,-5.092 -39.675,-11.342 -56.479,-13.892c-16.808,-2.545 -38.475,1.621 -48.15,9.263c-4.092,3.229 -7.871,6.212 -10.871,8.579" style="fill: none; fill-rule: nonzero; stroke: rgb(226, 144, 77); stroke-width: 7.5px;"/><path d="M436.482,871.175l-2.108,17.862l17.866,2.096l-8.475,6.692l-17.858,-2.1l2.1,-17.859l8.475,-6.691Z" style="fill: rgb(226, 144, 77); fill-rule: nonzero;"><title>Arrow</title></path><path d="M608.315,880.908l36.163,65.387c11.087,20.059 29.341,52.813 40.558,72.796l53.808,95.854c11.217,19.984 29.275,52.846 40.129,73.03l40.2,74.754c10.854,20.183 27.567,53.733 37.146,74.554l29.338,63.796c9.575,20.821 25.104,54.954 34.504,75.854l127.691,283.912" style="fill: none; fill-rule: nonzero; stroke: rgb(226, 144, 77); stroke-width: 7.5px;"/><path d="M1470.45,1416.02l-109.846,32.646c-21.967,6.529 -58.592,13.8 -81.388,16.154l-110.008,11.367c-22.796,2.354 -55.196,-1.867 -72,-9.388c-16.804,-7.516 -47.833,-6.379 -68.946,2.525l-24.416,10.3c-21.113,8.905 -46.8,13.709 -57.075,10.671c-10.28,-3.033 -18.688,-5.516 -18.688,-5.516" style="fill: none; fill-rule: nonzero; stroke: rgb(226, 144, 77); stroke-width: 7.5px;"/><path d="M1452.5,1408.09l15.816,8.563l-8.57,15.812l10.345,-3.075l8.567,-15.808l-15.808,-8.567l-10.35,3.075Z" style="fill: rgb(226, 144, 77); fill-rule: nonzero;"><title>Arrow</title></path><path d="M1127.76,884.611l61.642,146.771c8.875,21.129 23.725,55.563 32.996,76.517l81.404,183.979c9.271,20.958 23.446,55.658 31.5,77.112l25.967,69.205c8.054,21.454 23.516,55.525 34.366,75.708l55.846,103.9" style="fill: none; fill-rule: nonzero; stroke: rgb(226, 144, 77); stroke-width: 7.5px;"/><path d="M1433.21,1610.66l17.221,5.187l5.179,-17.225l5.113,9.509l-5.184,17.216l-17.216,-5.179l-5.113,-9.508Z" style="fill: rgb(226, 144, 77); fill-rule: nonzero; visibility: hidden;"><title>Arrow</title></path><path d="M708.592,568.21l228.425,-93.421" style="fill: none; fill-rule: nonzero; stroke: rgb(226, 144, 77); stroke-width: 7.5px;"/><path d="M657.397,843.011l-254.717,-446.95" style="fill: none; fill-rule: nonzero; stroke: rgb(226, 144, 77); stroke-width: 7.5px;"/></g></g><g id="LEVANDE-CAMPUS" transform="matrix(1, 0, 0, 1, -560.298279, -774.908203)" style=""><title>02_LEVANDE-CAMPUS:</title><g style=""><title>01_Primary Path</title><path d="M803.685,188.315l329.246,707.408" style="fill: none; fill-rule: nonzero; stroke: rgb(219, 87, 19); stroke-width: 12.5px;"/><path d="M1122.59,887.265l-55.938,28.725c-4.075,2.092 -11.162,3.805 -15.746,3.805l-55.554,-0c-4.583,-0 -11.916,1.116 -16.291,2.479l-150.755,46.9c-4.375,1.362 -11.504,1.262 -15.841,-0.221l-95.338,-32.575c-4.337,-1.479 -9.75,-5.95 -12.025,-9.925l-47.708,-83.442" style="fill:none;fill-rule:nonzero;stroke:#db5713;stroke-width:12.5px;"/><path d="M711.373,568.21l-35.467,-166.933l-51.279,-151.209" style="fill:none;fill-rule:nonzero;stroke:#db5713;stroke-width:12.5px;"/><path d="M652.692,266.84l-26.879,-13.275l-13.258,26.888l-5.78,-17.042l13.263,-26.875l26.875,13.263l5.779,17.041Z" style="fill:#db5713;fill-rule:nonzero;"><title>Arrow</title></path><path d="M477.924,519.472l137.592,-77.395c19.975,-11.238 52.85,-29.271 73.058,-40.08l6.146,-3.287c20.208,-10.813 54.308,-26.208 75.779,-34.221l46,-17.162c21.471,-8.013 53.204,-21.234 70.521,-29.384c17.313,-8.146 35.646,-21.896 40.738,-30.554c5.095,-8.658 9.262,-21.575 9.262,-28.704c0,-7.129 -5.417,-25.879 -12.037,-41.667c-6.621,-15.787 -10.788,-36.621 -9.259,-46.296c0.188,-1.191 0.371,-2.354 0.55,-3.483" style="fill:none;fill-rule:nonzero;stroke:#db5713;stroke-width:12.5px;"/><path d="M933.32,195.14l-17.625,-24.25l-24.237,17.642l2.804,-17.775l24.238,-17.629l17.629,24.237l-2.809,17.775Z" style="fill:#db5713;fill-rule:nonzero;"><title>Arrow</title></path></g><g style=""><title>03_Points</title><path d="M868.777,396.062c0,-8.679 -7.037,-15.717 -15.717,-15.717c-8.679,0 -15.716,7.038 -15.716,15.717c-0,8.679 7.037,15.717 15.716,15.717c8.68,-0 15.717,-7.038 15.717,-15.717" style="fill:#edc006;fill-rule:nonzero;"><title>Marker</title></path><path d="M895.952,499.452c0,-8.68 -7.037,-15.717 -15.717,-15.717c-8.679,-0 -15.716,7.037 -15.716,15.717c-0,8.679 7.037,15.716 15.716,15.716c8.68,0 15.717,-7.037 15.717,-15.716" style="fill:#edc006;fill-rule:nonzero;"><title>Marker</title></path><path d="M986.531,1121.07c0,-8.679 -7.037,-15.717 -15.716,-15.717c-8.68,0 -15.717,7.038 -15.717,15.717c-0,8.679 7.037,15.716 15.717,15.716c8.679,0.001 15.716,-7.037 15.716,-15.716" style="fill:#edc006;fill-rule:nonzero;"><title>Marker</title></path><path d="M1041.01,1145.74c-0,-8.679 -7.038,-15.717 -15.717,-15.717c-8.679,0 -15.717,7.038 -15.717,15.717c0,8.679 7.038,15.716 15.717,15.716c8.679,0 15.717,-7.037 15.717,-15.716" style="fill:#edc006;fill-rule:nonzero;"><title>Marker</title></path><path d="M1169.13,1225.52c0,-8.68 -7.037,-15.717 -15.716,-15.717c-8.68,-0 -15.717,7.037 -15.717,15.717c-0,8.679 7.037,15.716 15.717,15.716c8.679,0 15.716,-7.037 15.716,-15.716" style="fill:#edc006;fill-rule:nonzero;"><title>Marker</title></path><path d="M1090.88,1529.39c0,-8.679 -7.037,-15.716 -15.716,-15.716c-8.679,-0.001 -15.717,7.037 -15.717,15.716c0,8.679 7.038,15.717 15.717,15.717c8.679,-0 15.716,-7.038 15.716,-15.717" style="fill:#edc006;fill-rule:nonzero;"><title>Marker</title></path><path d="M1015.79,1529.6c0,-8.679 -7.037,-15.716 -15.717,-15.716c-8.679,-0 -15.716,7.037 -15.716,15.716c-0,8.68 7.037,15.717 15.716,15.717c8.68,0 15.717,-7.037 15.717,-15.717" style="fill:#edc006;fill-rule:nonzero;"><title>Marker</title></path><path d="M922.58,1413.58c-0,-8.679 -7.038,-15.717 -15.717,-15.717c-8.679,0 -15.717,7.038 -15.717,15.717c0,8.679 7.038,15.717 15.717,15.717c8.679,-0 15.717,-7.038 15.717,-15.717" style="fill:#edc006;fill-rule:nonzero;"><title>Marker</title></path><path d="M812.612,1136.78c-0,-8.679 -7.038,-15.717 -15.717,-15.717c-8.679,0 -15.717,7.038 -15.717,15.717c0,8.679 7.038,15.717 15.717,15.717c8.679,-0 15.717,-7.038 15.717,-15.717" style="fill:#edc006;fill-rule:nonzero;"><title>Marker</title></path><path d="M884.493,700.304c0,-8.679 -7.037,-15.717 -15.716,-15.717c-8.679,0 -15.717,7.038 -15.717,15.717c0,8.679 7.038,15.716 15.717,15.716c8.679,0 15.716,-7.037 15.716,-15.716" style="fill:#edc006;fill-rule:nonzero;"><title>Marker</title></path><path d="M915.081,839.241c-0,-8.679 -7.038,-15.716 -15.717,-15.716c-8.679,-0 -15.716,7.037 -15.716,15.716c-0,8.679 7.037,15.717 15.716,15.717c8.679,-0 15.717,-7.038 15.717,-15.717" style="fill:#edc006;fill-rule:nonzero;"><title>Marker</title></path><path d="M1154.08,1075.32c0,-8.68 -7.037,-15.717 -15.716,-15.717c-8.679,-0 -15.717,7.037 -15.717,15.717c0,8.679 7.038,15.716 15.717,15.716c8.679,0 15.716,-7.037 15.716,-15.716" style="fill:#edc006;fill-rule:nonzero;"><title>Marker</title></path></g><g style=""><title>02_Secondary Path</title><path d="M745.339,535.636l-47.208,-118.866l160.492,-69.196l54.937,121.25l-168.221,66.812Z" style="fill: none; fill-rule: nonzero; stroke: rgb(219, 87, 19); stroke-width: 6.25px; stroke-linecap: round; stroke-linejoin: round; stroke-dasharray: 2.08, 12.5;"/><path d="M722.204,625.352l-0,-45.508l202.666,-82.7l172.021,379.7l-46.291,18.879l-69.755,6.171l-110.491,32.716l-51.038,12.338l-73.037,-21.596l-27.779,-14.817l-42.592,-79.629" style="fill: none; fill-rule: nonzero; stroke: rgb(219, 87, 19); stroke-width: 6.25px; stroke-linecap: round; stroke-linejoin: round; stroke-dasharray: 2.08, 12.5;"/><path d="M610.272,800.662l23.041,42.35l-66.062,30.487l-46.896,-10.508" style="fill: none; fill-rule: nonzero; stroke: rgb(219, 87, 19); stroke-width: 6.25px; stroke-linecap: round; stroke-linejoin: round; stroke-dasharray: 2.08, 12.5;"/><path d="M1261.09,1234.61l-140.159,-318.579l-66.65,21.988l-66.65,2.762l-82.475,25.725l-76.937,22.425l-26.55,-0.567l37.237,111.063l12.925,37.033" style="fill: none; fill-rule: nonzero; stroke: rgb(219, 87, 19); stroke-width: 6.25px; stroke-linecap: round; stroke-linejoin: round; stroke-dasharray: 2.08, 12.5;"/><path d="M848.13,1162.39l16.666,97.529l86.479,216.005l103.009,-37.451" style="fill: none; fill-rule: nonzero; stroke: rgb(219, 87, 19); stroke-width: 6.25px; stroke-linecap: round; stroke-linejoin: round; stroke-dasharray: 2.08, 12.5;"/><path d="M1066.65,1475.92l-98.341,31.884l9.454,39.766" style="fill: none; fill-rule: nonzero; stroke: rgb(219, 87, 19); stroke-width: 6.25px; stroke-linecap: round; stroke-linejoin: round; stroke-dasharray: 2.08, 12.5;"/><path d="M1025.29,1745.72l-110.496,-240.742l-15.429,6.766" style="fill: none; fill-rule: nonzero; stroke: rgb(219, 87, 19); stroke-width: 6.25px; stroke-linecap: round; stroke-linejoin: round; stroke-dasharray: 2.08, 12.5;"/><path d="M751.216,1120.41l45.679,-31.484l-30.037,-86.45l-47.5,-20.525l-13.821,-32.375l-39.829,18.363" style="fill: none; fill-rule: nonzero; stroke: rgb(219, 87, 19); stroke-width: 6.25px; stroke-linecap: round; stroke-linejoin: round; stroke-dasharray: 2.08, 12.5;"/></g><g style=""><title>04_Asterix</title><g><title>Asterix</title><path d="M 604.303 880.907 L 687.636 880.907" style="fill: none; fill-rule: nonzero; stroke: rgb(145, 45, 32); stroke-width: 8.33px;"/><path d="M645.969,922.575l0,-83.334" style="fill:none;fill-rule:nonzero;stroke:#912d20;stroke-width:8.33px;"/><path d="M616.008,909.864l59.921,-57.913" style="fill:none;fill-rule:nonzero;stroke:#912d20;stroke-width:8.33px;"/><path d="M671.62,913.743l-51.3,-65.671" style="fill:none;fill-rule:nonzero;stroke:#912d20;stroke-width:8.33px;"/></g><g><title>Asterix</title><path d="M 1086.09 884.612 L 1169.42 884.611" style="fill:none;fill-rule:nonzero;stroke:#912d20;stroke-width:8.33px;"/><path d="M1127.76,926.278l0,-83.333" style="fill:none;fill-rule:nonzero;stroke:#912d20;stroke-width:8.33px;"/><path d="M1097.8,913.567l59.921,-57.912" style="fill:none;fill-rule:nonzero;stroke:#912d20;stroke-width:8.33px;"/><path d="M1153.41,917.447l-51.3,-65.671" style="fill:none;fill-rule:nonzero;stroke:#912d20;stroke-width:8.33px;"/></g><g><title>Asterix</title><path d="M 892.07 476.627 L 975.404 476.627" style="fill:none;fill-rule:nonzero;stroke:#912d20;stroke-width:8.33px;"/><path d="M933.737,518.294l0,-83.334" style="fill:none;fill-rule:nonzero;stroke:#912d20;stroke-width:8.33px;"/><path d="M903.776,505.583l59.921,-57.913" style="fill:none;fill-rule:nonzero;stroke:#912d20;stroke-width:8.33px;"/><path d="M959.388,509.463l-51.3,-65.671" style="fill:none;fill-rule:nonzero;stroke:#912d20;stroke-width:8.33px;"/></g><g><title>Asterix</title><path d="M 670.46 557.787 L 753.793 557.786" style="fill:none;fill-rule:nonzero;stroke:#912d20;stroke-width:8.33px;"/><path d="M712.127,599.453l-0,-83.333" style="fill:none;fill-rule:nonzero;stroke:#912d20;stroke-width:8.33px;"/><path d="M682.166,586.743l59.921,-57.913" style="fill:none;fill-rule:nonzero;stroke:#912d20;stroke-width:8.33px;"/><path d="M737.778,590.622l-51.3,-65.671" style="fill:none;fill-rule:nonzero;stroke:#912d20;stroke-width:8.33px;"/></g><g><title>Asterix</title><path d="M1036.15,1462.98l83.334,-0" style="fill:none;fill-rule:nonzero;stroke:#912d20;stroke-width:8.33px;"/><path d="M1077.82,1504.65l0,-83.333" style="fill:none;fill-rule:nonzero;stroke:#912d20;stroke-width:8.33px;"/><path d="M1047.85,1491.93l59.921,-57.912" style="fill:none;fill-rule:nonzero;stroke:#912d20;stroke-width:8.33px;"/><path d="M1103.46,1495.82l-51.3,-65.671" style="fill:none;fill-rule:nonzero;stroke:#912d20;stroke-width:8.33px;"/></g><g><title>Asterix</title><path d="M 827.11 332.628 L 910.444 332.628" style="fill:none;fill-rule:nonzero;stroke:#912d20;stroke-width:8.33px;"/><path d="M 868.777 374.296 L 868.777 290.963" style="fill: none; fill-rule: nonzero; stroke: rgb(145, 45, 32); stroke-width: 8.33px; transform-box: fill-box; transform-origin: 50% 50%;"/><path d="M838.816,361.584l59.921,-57.912" style="fill:none;fill-rule:nonzero;stroke:#912d20;stroke-width:8.33px;"/><path d="M894.428,365.463l-51.3,-65.67" style="fill:none;fill-rule:nonzero;stroke:#912d20;stroke-width:8.33px;"/></g></g></g><g id="projektgräns" transform="matrix(1, 0, 0, 1, -560.298279, -774.908203)" style=""><title>01_PROJECT BOUNDARY</title><path d="M657.397,396.062l29.079,161.725l-0,113.058l-30.188,135.605l-26.679,-39.738l-123.604,70.371l17.133,47.529l73.759,6.792l142.591,262.341l104.738,228.4l124.083,293.825l64.104,135.492l437.013,-182.404l-119.446,-270.371l-230.5,-542.046l-233.079,-516.85l-229.004,96.271Z" style="fill:none;fill-rule:nonzero;stroke:#848484;stroke-width:2.08px;stroke-dasharray:8.33,8.33;"/></g></svg>